<svg width="143" height="87" viewBox="0 0 143 87" fill="none" xmlns="http://www.w3.org/2000/svg">
<path d="M81.7143 47.745C85.3225 43.6535 90.2202 38.6343 92.2056 36.6461C93.7365 35.1108 95.4231 33.8429 97.1953 32.7823L94.4924 26.9776C92.069 28.3632 89.7823 30.084 87.719 32.1503C86.3452 33.5269 83.7022 36.2265 80.9712 39.1397C79.6076 40.597 78.2236 42.1054 76.9608 43.5358C76.0479 44.5734 73.2275 47.9548 72.4921 48.8671L76.8625 53.5766C77.5877 52.6337 80.5728 49.0398 81.7143 47.745ZM139.813 42.7221C138.257 38.8736 135.918 35.2644 132.811 32.1516C129.704 29.0375 126.103 26.6936 122.262 25.134C118.419 23.5731 114.343 22.7939 110.266 22.7939C107.367 22.7939 104.47 23.1957 101.655 23.9838L104.394 29.8614C106.324 29.4059 108.292 29.1501 110.267 29.1501C113.539 29.1501 116.808 29.7757 119.88 31.0244C122.952 32.2731 125.827 34.1423 128.326 36.6474C130.825 39.1525 132.69 42.0325 133.937 45.112C135.185 48.1903 135.808 51.4668 135.808 54.7434C135.808 58.02 135.185 61.2978 133.937 64.3748C132.69 67.4531 130.825 70.3343 128.326 72.8394C125.827 75.3445 122.952 77.2137 119.88 78.4624C116.808 79.7124 113.538 80.3367 110.267 80.3367C106.996 80.3367 103.726 79.7124 100.654 78.4624C97.5822 77.2137 94.7069 75.3445 92.2082 72.8394L87.5773 67.8523L76.2203 55.6198L54.4307 32.1503C52.5014 30.2171 50.3807 28.582 48.131 27.245L45.4804 33.0932C47.0598 34.0911 48.5638 35.2618 49.944 36.6449L58.4168 45.7696L58.4589 45.8157L87.719 77.334C90.8267 80.4481 94.4272 82.7932 98.2678 84.3515C102.108 85.9124 106.188 86.6916 110.264 86.6916C114.341 86.6916 118.419 85.9124 122.261 84.3515C126.102 82.7919 129.702 80.4468 132.81 77.334C135.918 74.2212 138.257 70.6107 139.812 66.7622C141.371 62.9137 142.148 58.8273 142.148 54.7408C142.148 50.6544 141.372 46.5705 139.813 42.7221ZM60.0357 61.5268C58.2725 63.6302 56.2067 66.0009 54.3489 68.0787C53.4194 69.1189 52.5436 70.0835 51.7839 70.9036C51.0255 71.7237 50.3807 72.4018 49.944 72.8394C47.4441 75.3445 44.5688 77.2137 41.4968 78.4624C38.4261 79.7124 35.155 80.3367 31.8852 80.3367C28.6153 80.3367 25.3442 79.7124 22.2723 78.4624C19.2003 77.2137 16.3263 75.3445 13.8263 72.8394C11.3264 70.3343 9.46098 67.4531 8.21484 64.3748C6.9687 61.2978 6.34435 58.02 6.34435 54.7434C6.34435 51.4668 6.9687 48.1903 8.21484 45.112C9.46098 42.0325 11.3264 39.1525 13.8263 36.6474C16.3263 34.1423 19.2003 32.2744 22.2723 31.0244C25.3442 29.7744 28.6153 29.1501 31.8852 29.1501C34.0659 29.1501 36.2416 29.4546 38.3623 30.0098L41.0282 24.1309C38.0482 23.2405 34.9661 22.7939 31.8852 22.7939C27.8084 22.7939 23.7291 23.5731 19.8885 25.134C16.0492 26.6936 12.4461 29.0388 9.33969 32.1516C6.23199 35.2644 3.89164 38.8736 2.33652 42.7221C0.777563 46.5705 0 50.657 0 54.7434C0 58.8298 0.777562 62.9163 2.33524 66.7647C3.89164 70.6132 6.23199 74.2237 9.33841 77.3365C12.4448 80.4506 16.0466 82.7958 19.8872 84.3541C23.7291 85.915 27.8071 86.6941 31.8839 86.6941C35.9607 86.6941 40.04 85.915 43.8806 84.3541C47.7211 82.7945 51.323 80.4493 54.4307 77.3365C54.7882 76.9783 55.2069 76.542 55.6832 76.0354C57.3456 74.2698 59.7012 71.647 62.0122 68.9871C63.1664 67.6578 64.3079 66.3221 65.3408 65.0823C66.0698 64.2047 68.7141 60.992 69.3052 60.2423L64.9284 55.529C64.1942 56.4911 61.1938 60.1489 60.0357 61.5268Z" fill="#12151C"/>
<path d="M114.45 54.7882L96.8289 16.9663L101.078 10.3044H106.58C107.231 10.3044 107.867 10.0408 108.325 9.58023C108.783 9.11965 109.048 8.48378 109.048 7.83256C109.048 7.18134 108.783 6.54547 108.325 6.08488C107.867 5.62429 107.231 5.36073 106.58 5.36073H99.7272H88.0472C86.6836 5.36073 85.5779 6.46743 85.5779 7.83256C85.5779 9.19769 86.6823 10.3044 88.0472 10.3044H95.224L92.6704 14.3077H52.4491L56.6945 4.94365C58.3619 4.94365 59.4498 4.94365 59.4498 4.94365C60.0996 4.94365 60.7355 4.68009 61.1939 4.2195C61.6535 3.76019 61.9165 3.12304 61.9165 2.47182C61.9165 1.8206 61.6535 1.18474 61.1939 0.724147C60.7355 0.263559 60.0996 0 59.451 0H59.4127C58.6326 0 46.0512 0 41.2326 0H33.3165C32.027 0 30.7872 0.263559 29.6636 0.7395C27.9744 1.45469 26.547 2.64326 25.5358 4.14274C24.5246 5.63965 23.9309 7.46153 23.9321 9.39984C23.9321 10.6908 24.1952 11.9344 24.6701 13.0602C25.3851 14.7503 26.57 16.1807 28.0664 17.194C29.5615 18.2073 31.3796 18.8022 33.314 18.801H37.9998C39.3621 18.801 40.4678 17.6943 40.4678 16.3291C40.4678 14.964 39.3634 13.8573 37.9998 13.8573H33.314C32.6934 13.8573 32.1138 13.7319 31.5839 13.508C30.7885 13.1715 30.1041 12.6035 29.624 11.8909C29.1452 11.1769 28.8669 10.3325 28.8656 9.40112C28.8669 8.77932 28.9908 8.19975 29.2142 7.66751C29.55 6.87044 30.1169 6.18468 30.8281 5.7049C31.5418 5.22384 32.3845 4.94621 33.314 4.94493H41.23C43.5231 4.94493 47.5731 4.94493 51.2732 4.94493L46.3704 15.7585V15.7598L28.6665 54.8113C28.3971 55.4036 28.3741 56.092 28.6026 56.7022C28.8312 57.3112 29.2997 57.8153 29.8922 58.084C30.4833 58.354 31.1702 58.377 31.7793 58.148C32.3883 57.919 32.8901 57.4481 33.1582 56.8558L50.2084 19.2526H92.4508L109.98 56.8801C110.257 57.4699 110.763 57.9356 111.374 58.1582C111.986 58.3808 112.671 58.3488 113.26 58.0738C113.849 57.7987 114.315 57.2921 114.537 56.6792C114.759 56.0664 114.724 55.3781 114.45 54.7882Z" fill="#FFDC64"/>
</svg>
